<?xml version="1.0" standalone="no"?>
<!DOCTYPE svg PUBLIC "-//W3C//DTD SVG 20010904//EN"
 "http://www.w3.org/TR/2001/REC-SVG-20010904/DTD/svg10.dtd">
<svg version="1.0" xmlns="http://www.w3.org/2000/svg"
 width="1145.000000pt" height="116.000000pt" viewBox="0 0 1145.000000 116.000000"
 preserveAspectRatio="xMidYMid meet">
<metadata>
Created by potrace 1.15, written by Peter Selinger 2001-2017
</metadata>
<g transform="translate(0.000000,116.000000) scale(0.100000,-0.100000)"
fill="#000000" stroke="none">
<path d="M3410 735 c0 -257 4 -395 10 -395 6 0 10 138 10 395 0 257 -4 395
-10 395 -6 0 -10 -138 -10 -395z"/>
<path d="M274 1053 c-20 -127 -5 -727 23 -945 l6 -48 99 0 100 0 -6 27 c-20
107 -31 328 -31 651 l0 362 -92 0 -92 0 -7 -47z"/>
<path d="M9673 1053 c35 -269 30 -787 -8 -960 -5 -20 -1 -23 24 -23 26 0 30 4
35 38 28 179 35 659 13 872 l-12 115 -29 3 -29 4 6 -49z"/>
<path d="M10174 1043 c27 -224 25 -683 -3 -910 l-7 -63 27 0 c33 0 34 5 50
220 11 151 7 577 -7 738 -7 72 -7 72 -37 72 l-30 0 7 -57z"/>
<path d="M10614 1085 c3 -9 11 -119 18 -246 9 -184 9 -279 -1 -467 -7 -130
-15 -252 -18 -270 l-5 -32 50 0 49 0 8 83 c21 219 21 729 0 892 l-6 55 -51 0
c-41 0 -49 -3 -44 -15z"/>
<path d="M11085 738 c0 -322 -13 -587 -31 -650 -5 -16 4 -18 94 -18 l100 0 6
43 c27 192 42 814 22 940 l-7 47 -92 0 -92 0 0 -362z"/>
<path d="M5629 1071 c-88 -28 -154 -69 -218 -135 -104 -109 -146 -222 -138
-375 5 -117 25 -176 86 -267 58 -85 158 -160 256 -193 98 -32 229 -31 324 2
139 48 257 161 312 297 27 69 37 223 19 301 -29 124 -128 258 -237 322 -116
66 -283 87 -404 48z m227 -32 c242 -44 414 -281 377 -520 -32 -203 -189 -360
-392 -392 -244 -37 -477 134 -522 384 -48 267 168 528 447 538 17 0 57 -4 90
-10z"/>
<path d="M996 829 c-42 -10 -96 -39 -96 -51 0 -11 -1 -11 54 17 85 43 182 27
229 -37 12 -16 22 -49 25 -83 l4 -55 -80 0 c-45 0 -103 -5 -130 -10 -130 -28
-184 -162 -97 -239 83 -73 229 -46 282 52 17 32 17 32 20 7 8 -60 14 -90 21
-90 11 0 -3 382 -15 410 -15 34 -45 59 -90 76 -43 15 -72 16 -127 3z m214
-262 c0 -134 -73 -220 -185 -220 -93 0 -154 56 -142 131 15 90 90 125 280 131
l47 1 0 -43z"/>
<path d="M1665 827 c-60 -20 -95 -46 -127 -96 l-28 -45 0 67 c0 38 -4 67 -10
67 -6 0 -10 -128 -10 -365 0 -237 4 -365 10 -365 6 0 10 71 10 193 0 192 0
192 19 162 67 -108 192 -145 307 -91 87 40 133 121 133 231 0 101 -52 190
-132 228 -47 23 -125 29 -172 14z m166 -35 c101 -53 145 -179 105 -300 -52
-157 -272 -198 -370 -69 -76 100 -75 227 3 318 69 82 167 101 262 51z"/>
<path d="M2375 827 c-60 -20 -95 -46 -127 -96 l-28 -45 0 67 c0 38 -4 67 -10
67 -6 0 -10 -128 -10 -365 0 -237 4 -365 10 -365 6 0 10 71 10 193 0 192 0
192 19 162 67 -108 192 -145 307 -91 85 39 133 121 134 227 0 104 -51 193
-134 233 -46 22 -125 28 -171 13z m166 -35 c101 -53 145 -179 105 -300 -52
-157 -272 -198 -370 -69 -76 100 -75 227 3 318 69 82 167 101 262 51z"/>
<path d="M3875 834 c-101 -25 -165 -77 -191 -156 -25 -75 -15 -174 22 -235 97
-156 341 -151 430 9 25 46 29 63 29 133 0 63 -5 89 -22 121 -25 46 -72 91
-119 110 -35 15 -120 25 -149 18z m119 -25 c96 -27 164 -136 153 -250 -15
-173 -190 -265 -347 -184 -106 55 -144 229 -74 341 53 86 160 123 268 93z"/>
<path d="M4533 829 c-57 -14 -125 -76 -153 -141 -40 -94 -16 -232 52 -295 62
-58 179 -80 256 -47 43 17 86 56 113 99 l19 30 0 -80 c0 -202 -70 -295 -221
-295 -68 0 -136 24 -175 61 -12 11 -25 16 -28 11 -3 -5 12 -22 34 -37 120 -83
273 -72 351 25 50 62 59 126 59 407 0 162 -4 253 -10 253 -6 0 -10 -29 -10
-66 l0 -66 -32 48 c-54 79 -156 116 -255 93z m145 -25 c111 -46 170 -188 128
-307 -58 -161 -251 -205 -364 -83 -72 78 -84 209 -27 302 54 88 171 127 263
88z"/>
<path d="M2830 818 c0 -1 43 -113 94 -247 l95 -244 -30 -82 c-40 -110 -83
-153 -138 -138 -12 3 -21 1 -21 -6 0 -6 17 -11 40 -11 77 0 87 17 225 389 111
297 131 361 109 338 -3 -3 -42 -104 -86 -224 -44 -120 -83 -221 -87 -226 -4
-4 -46 95 -93 220 -47 125 -90 229 -97 231 -6 2 -11 2 -11 0z"/>
</g>
</svg>
